<?xml version="1.0" encoding="UTF-8" standalone="no"?>
<svg
   xmlns:dc="http://purl.org/dc/elements/1.1/"
   xmlns:cc="http://creativecommons.org/ns#"
   xmlns:rdf="http://www.w3.org/1999/02/22-rdf-syntax-ns#"
   xmlns:svg="http://www.w3.org/2000/svg"
   xmlns="http://www.w3.org/2000/svg"
   xmlns:sodipodi="http://sodipodi.sourceforge.net/DTD/sodipodi-0.dtd"
   xmlns:inkscape="http://www.inkscape.org/namespaces/inkscape"
   width="210mm"
   height="297mm"
   viewBox="0 0 210 297"
   version="1.1"
   id="svg8"
   inkscape:version="1.0.2 (1.0.2+r75+1)"
   sodipodi:docname="icon.svg"
   inkscape:export-filename="/home/user/Documents/website/public/icon.png"
   inkscape:export-xdpi="96"
   inkscape:export-ydpi="96">
  <defs
     id="defs2" />
  <sodipodi:namedview
     id="base"
     pagecolor="#ffffff"
     bordercolor="#666666"
     borderopacity="1.0"
     inkscape:pageopacity="0.0"
     inkscape:pageshadow="2"
     inkscape:zoom="1"
     inkscape:cx="530.00224"
     inkscape:cy="344.18282"
     inkscape:document-units="mm"
     inkscape:current-layer="layer1"
     inkscape:document-rotation="0"
     showgrid="false"
     inkscape:window-width="1366"
     inkscape:window-height="704"
     inkscape:window-x="0"
     inkscape:window-y="0"
     inkscape:window-maximized="1" />
  <metadata
     id="metadata5">
    <rdf:RDF>
      <cc:Work
         rdf:about="">
        <dc:format>image/svg+xml</dc:format>
        <dc:type
           rdf:resource="http://purl.org/dc/dcmitype/StillImage" />
        <dc:title />
      </cc:Work>
    </rdf:RDF>
  </metadata>
  <g
     inkscape:label="Layer 1"
     inkscape:groupmode="layer"
     id="layer1">
    <path
       id="path1449-0"
       style="fill:#000000;stroke:#000000;stroke-width:1.372;stroke-linecap:square;stroke-linejoin:round;stroke-miterlimit:4;stroke-dasharray:none"
       d="m 100.90274,85.586299 -12.100547,6.892179 -0.03466,5.790455 2.90119,-3.461731 h 3.871557 a 1.9867989,1.9867989 0 0 1 1.643427,-0.870676 1.9867989,1.9867989 0 0 1 1.987012,1.987007 1.9867989,1.9867989 0 0 1 -1.987012,1.98663 1.9867989,1.9867989 0 0 1 -1.673619,-0.91639 h -2.821082 l -1.068465,1.27516 h 2.262065 l 0.08492,-0.12167 0.174704,0.12167 h 11.93039 l -0.007,-1.4864 4.52273,2.57542 -4.49188,2.628977 -0.007,-1.53147 h -8.800838 l 1.219113,0.84832 h 2.756955 v -0.63028 h 3.1125 v 3.39961 h -3.1125 v -0.58279 h -2.71685 l -0.236751,0.34039 -0.488511,-0.34039 h -0.38414 v -0.26691 l -3.978564,-2.76791 h -4.701399 l -0.03466,5.94814 12.018985,7.03331 12.10051,-6.8922 0.0815,-13.925469 z" />
  </g>
</svg>
