<?xml version="1.0" encoding="UTF-8" standalone="no"?>
<svg
   xmlns:dc="http://purl.org/dc/elements/1.1/"
   xmlns:cc="http://creativecommons.org/ns#"
   xmlns:rdf="http://www.w3.org/1999/02/22-rdf-syntax-ns#"
   xmlns:svg="http://www.w3.org/2000/svg"
   xmlns="http://www.w3.org/2000/svg"
   xmlns:sodipodi="http://sodipodi.sourceforge.net/DTD/sodipodi-0.dtd"
   xmlns:inkscape="http://www.inkscape.org/namespaces/inkscape"
   width="210mm"
   height="297mm"
   viewBox="0 0 210 297"
   version="1.1"
   id="svg8"
   inkscape:version="1.0.2 (1.0.2+r75+1)"
   sodipodi:docname="logo.svg"
   inkscape:export-filename="/home/user/Documents/website/src/components/img/logo.png"
   inkscape:export-xdpi="96"
   inkscape:export-ydpi="96">
  <defs
     id="defs2" />
  <sodipodi:namedview
     id="base"
     pagecolor="#ffffff"
     bordercolor="#666666"
     borderopacity="1.0"
     inkscape:pageopacity="0.0"
     inkscape:pageshadow="2"
     inkscape:zoom="1.4142136"
     inkscape:cx="419.11489"
     inkscape:cy="367.15994"
     inkscape:document-units="mm"
     inkscape:current-layer="layer1"
     inkscape:document-rotation="0"
     showgrid="false"
     inkscape:window-width="1366"
     inkscape:window-height="704"
     inkscape:window-x="0"
     inkscape:window-y="0"
     inkscape:window-maximized="1" />
  <metadata
     id="metadata5">
    <rdf:RDF>
      <cc:Work
         rdf:about="">
        <dc:format>image/svg+xml</dc:format>
        <dc:type
           rdf:resource="http://purl.org/dc/dcmitype/StillImage" />
        <dc:title />
      </cc:Work>
    </rdf:RDF>
  </metadata>
  <g
     inkscape:label="Layer 1"
     inkscape:groupmode="layer"
     id="layer1">
    <rect
       style="fill:#000000;stroke:#000000;stroke-width:0;stroke-linecap:square;stroke-linejoin:round;stroke-miterlimit:4;stroke-dasharray:none"
       id="rect1237-4"
       width="74.487061"
       height="24.337673"
       x="72.510544"
       y="91.043236" />
    <text
       xml:space="preserve"
       style="font-style:normal;font-weight:normal;font-size:7.05871px;line-height:1.25;font-family:sans-serif;letter-spacing:0px;word-spacing:0px;fill:#ffffff;fill-opacity:1;stroke:#ffffff;stroke-width:0.176468"
       x="96.103935"
       y="106.33591"
       id="text12-8"><tspan
         sodipodi:role="line"
         id="tspan10-4"
         x="96.103935"
         y="106.33591"
         style="font-style:normal;font-variant:normal;font-weight:bold;font-stretch:normal;font-family:Ubuntu;-inkscape-font-specification:'Ubuntu Bold';fill:#ffffff;stroke:#ffffff;stroke-width:0.176468">PICUS</tspan></text>
    <path
       id="path1449-0"
       style="fill:#ffffff;stroke:#ffffff;stroke-width:0.395807;stroke-linecap:square;stroke-linejoin:round;stroke-miterlimit:4;stroke-dasharray:none"
       d="m 90.695773,99.780985 -3.49087,1.988315 -0.01,1.67048 0.83696,-0.99867 h 1.1169 a 0.57316876,0.57316876 0 0 1 0.47411,-0.25118 0.57316876,0.57316876 0 0 1 0.57323,0.57323 0.57316876,0.57316876 0 0 1 -0.57323,0.57312 0.57316876,0.57316876 0 0 1 -0.48282,-0.26437 h -0.81385 l -0.30824,0.36787 h 0.65258 l 0.0245,-0.0351 0.0504,0.0351 h 3.44178 l -0.002,-0.42881 1.30476,0.74298 -1.29586,0.75843 -0.002,-0.44181 h -2.53894 l 0.3517,0.24473 h 0.79535 v -0.18183 h 0.89792 v 0.98075 h -0.89792 v -0.16813 h -0.78378 l -0.0683,0.0982 -0.14093,-0.0982 h -0.11082 v -0.077 l -1.14777,-0.79851 h -1.3563 l -0.01,1.71597 3.46734,2.02903 3.49086,-1.98832 0.0235,-4.01734 z" />
  </g>
</svg>
